Coordinates
version=1
nRows=14
nColumns=24
inDegrees=yes

Units are S.I. units (second, meters, Newtons, ...)
Angles are in degrees.

endheader
time	pelvis_tilt	pelvis_list	pelvis_rotation	pelvis_tx	pelvis_ty	pelvis_tz	hip_flexion_r	hip_adduction_r	hip_rotation_r	knee_angle_r	ankle_angle_r	subtalar_angle_r	mtp_angle_r	hip_flexion_l	hip_adduction_l	hip_rotation_l	knee_angle_l	ankle_angle_l	subtalar_angle_l	mtp_angle_l	lumbar_extension	lumbar_bending	lumbar_rotation
      6.90000000	     34.67344858	      3.91315112	      5.52560945	      1.78487844	      0.67755452	     -0.28894911	    -30.09223794	      3.90345856	     -5.97901771	    -12.57987062	     18.02175579	      6.58879887	      0.00000000	    -23.95852834	     -4.98236645	     -8.15302367	    -58.85580980	     11.05280361	     -2.08669904	      0.00000000	    -62.34981207	      2.85109503	     -4.85961621
      6.90500000	     34.68334422	      3.92631285	      5.29752270	      1.78965175	      0.67793396	     -0.28884030	    -30.73610233	      3.83007881	     -5.76021259	    -12.24335348	     18.14001714	      6.70922316	      0.00000000	    -23.25422875	     -4.64254842	     -8.11966736	    -58.58176993	     11.62630077	     -1.59781284	      0.00000000	    -62.40700141	      2.72586413	     -4.63494625
      6.91000000	     34.64426773	      3.94956876	      5.09729053	      1.79441345	      0.67827447	     -0.28885013	    -31.34266863	      3.74300022	     -5.59038616	    -11.87463342	     18.23193315	      6.77566583	      0.00000000	    -22.49324993	     -4.24586309	     -7.99640524	    -58.24024877	     12.12388302	     -1.17335320	      0.00000000	    -62.40983533	      2.62990915	     -4.41518975
      6.91500000	     34.62987686	      3.93874061	      4.87898197	      1.79908144	      0.67860595	     -0.28873297	    -31.95857141	      3.68356397	     -5.38851354	    -11.51356839	     18.31353346	      6.96692912	      0.00000000	    -21.76709858	     -3.90254269	     -7.88410320	    -57.82885092	     12.66052325	     -0.27998340	      0.00000000	    -62.47646891	      2.51658680	     -4.22799169
      6.92000000	     34.59540987	      3.92831147	      4.66603928	      1.80375246	      0.67890967	     -0.28869516	    -32.57177883	      3.61436657	     -5.21685204	    -11.11313229	     18.36194758	      7.11055485	      0.00000000	    -21.03197489	     -3.51517297	     -7.71342313	    -57.33659825	     13.12084103	      0.51767652	      0.00000000	    -62.51405363	      2.41337207	     -4.01066026
      6.92500000	     34.55221254	      3.90206559	      4.45028823	      1.80842052	      0.67919799	     -0.28874278	    -33.18106205	      3.54199370	     -5.05685362	    -10.69917103	     18.39294045	      7.26511421	      0.00000000	    -20.30881657	     -3.11138869	     -7.50431765	    -56.75939657	     13.53940239	      1.39329548	      0.00000000	    -62.54310515	      2.34690507	     -3.79819438
      6.93000000	     34.50052816	      3.87014789	      4.23749568	      1.81305248	      0.67945442	     -0.28874961	    -33.78730902	      3.47663768	     -4.91530709	    -10.26118074	     18.39822302	      7.43070448	      0.00000000	    -19.58565454	     -2.70617981	     -7.25814508	    -56.11386455	     13.91606830	      2.31715909	      0.00000000	    -62.57325115	      2.26237018	     -3.58567210
      6.93500000	     34.44460314	      3.82329907	      4.02425572	      1.81768740	      0.67969351	     -0.28882095	    -34.39427380	      3.41232712	     -4.79170225	     -9.81188018	     18.38562220	      7.60701556	      0.00000000	    -18.88495392	     -2.29434898	     -6.97958439	    -55.37941989	     14.24616638	      3.27774295	      0.00000000	    -62.59727947	      2.20358321	     -3.37130722
      6.94000000	     34.39351023	      3.76239420	      3.80896721	      1.82232924	      0.67990310	     -0.28886326	    -35.02188446	      3.36081492	     -4.68398810	     -9.32766419	     18.36498382	      7.79948800	      0.00000000	    -18.21202064	     -1.89329788	     -6.67548232	    -54.57127551	     14.53243656	      4.25023477	      0.00000000	    -62.61976134	      2.14688613	     -3.15809078
      6.94500000	     34.33749151	      3.69816491	      3.59345261	      1.82696618	      0.68010134	     -0.28893695	    -35.64177328	      3.30368528	     -4.60727863	     -8.84815801	     18.31519617	      7.99840310	      0.00000000	    -17.56579668	     -1.48317899	     -6.34124086	    -53.66747109	     14.77056579	      5.22162846	      0.00000000	    -62.63768780	      2.09701770	     -2.93850323
      6.95000000	     34.22093457	      3.61651819	      3.37663558	      1.83164211	      0.68023570	     -0.28905148	    -36.21907046	      3.25223718	     -4.54899838	     -8.31657651	     18.23012416	      8.13312266	      0.00000000	    -16.86821038	     -1.06646295	     -5.97734339	    -52.71374434	     14.92181486	      6.00410944	      0.00000000	    -62.59064480	      2.04939456	     -2.65534366
      6.95500000	     34.13331265	      3.52720585	      3.16126194	      1.83629687	      0.68035636	     -0.28910037	    -36.81363470	      3.21259873	     -4.50817316	     -7.81354305	     18.15054774	      8.34436329	      0.00000000	    -16.23942546	     -0.68528731	     -5.60462448	    -51.66680162	     15.08438164	      6.96981659	      0.00000000	    -62.57245574	      2.00164408	     -2.42633540
      6.96000000	     34.16096665	      3.42459467	      2.93384419	      1.84087695	      0.68048230	     -0.28910648	    -37.52772852	      3.18312966	     -4.48988164	     -7.31629232	     18.11173630	      8.68861376	      0.00000000	    -15.76502108	     -0.33455329	     -5.21684469	    -50.54698776	     15.23959258	      8.00095258	      0.00000000	    -62.68798552	      1.95344401	     -2.29529954
      6.96500000	     34.13996377	      3.33799959	      2.70613914	      1.84557374	      0.68057889	     -0.28914507	    -38.21995920	      3.13404277	     -4.52463889	     -6.77520824	     18.01816098	      8.95485246	      0.00000000	    -15.28766480	      0.04571469	     -4.80857754	    -49.32785948	     15.30020835	      8.80853176	      0.00000000	    -62.72311303	      1.88797442	     -2.08657230
